<svg height="421" viewBox="0 .031 313 52.756" width="2500" xmlns="http://www.w3.org/2000/svg"><path d="m15.071 52.136h-15.071v-51.251h26.065l29.902 38.262v-38.262h15.071v51.251h-25.537l-30.43-38.915zm128.076-15.847c0 7.124-1.259 9.579-3.346 11.936-3.198 3.508-7.848 4.562-16.813 4.562h-25.732c-8.965 0-13.621-1.055-16.816-4.562-2.083-2.355-3.345-4.812-3.345-11.936v-19.757c0-7.123 1.262-9.577 3.345-11.936 3.195-3.511 7.852-4.565 16.816-4.565h25.733c8.964 0 13.615 1.055 16.812 4.565 2.086 2.358 3.346 4.812 3.346 11.936zm-20.792 3.511c3.442 0 4.656-.201 5.48-.952.774-.702 1.115-1.605 1.115-4.616v-15.645c0-3.01-.341-3.908-1.115-4.613-.824-.753-2.038-.952-5.48-.952h-24.468c-3.442 0-4.655.199-5.477.952-.776.705-1.115 1.604-1.115 4.613v15.645c0 3.01.338 3.914 1.115 4.616.822.751 2.035.952 5.477.952zm42.694-38.915v51.251h-15.747v-51.251zm26.605 0h20.789l-28.057 23.973 31.645 27.278h-22.246l-28.736-26.729zm27.282 0h15.752v51.251h-15.752zm75.796 51.251-4.66-8.928h-30.474l-4.604 8.928h-17.398l27.915-51.252h19.575l27.914 51.252zm-29.662-20.06h19.582l-9.793-18.555z" fill="#1c4598"></path></svg>