<svg width="25" height="25" viewBox="0 0 25 25" fill="none" xmlns="http://www.w3.org/2000/svg">
<path d="M20.8335 2.08325H4.16683C3.6143 2.08325 3.08439 2.30275 2.69369 2.69345C2.30299 3.08415 2.0835 3.61405 2.0835 4.16659V16.6666C2.0835 17.2191 2.30299 17.749 2.69369 18.1397C3.08439 18.5304 3.6143 18.7499 4.16683 18.7499H7.29183V21.8749C7.29239 22.0713 7.34842 22.2634 7.45347 22.4293C7.55852 22.5952 7.70832 22.728 7.88558 22.8124C8.02407 22.8834 8.1779 22.9192 8.3335 22.9166C8.56846 22.9152 8.79606 22.8345 8.97933 22.6874L13.9064 18.7499H20.8335C21.386 18.7499 21.9159 18.5304 22.3066 18.1397C22.6973 17.749 22.9168 17.2191 22.9168 16.6666V4.16659C22.9168 3.61405 22.6973 3.08415 22.3066 2.69345C21.9159 2.30275 21.386 2.08325 20.8335 2.08325ZM8.3335 11.4583C8.12747 11.4583 7.92608 11.3972 7.75478 11.2827C7.58348 11.1682 7.44996 11.0056 7.37112 10.8152C7.29228 10.6249 7.27165 10.4154 7.31184 10.2134C7.35204 10.0113 7.45125 9.8257 7.59693 9.68002C7.74261 9.53434 7.92821 9.43513 8.13028 9.39493C8.33234 9.35474 8.54179 9.37537 8.73212 9.45421C8.92246 9.53305 9.08515 9.66657 9.19961 9.83787C9.31407 10.0092 9.37516 10.2106 9.37516 10.4166C9.37516 10.6929 9.26542 10.9578 9.07007 11.1532C8.87471 11.3485 8.60976 11.4583 8.3335 11.4583ZM12.5002 11.4583C12.2941 11.4583 12.0927 11.3972 11.9214 11.2827C11.7501 11.1682 11.6166 11.0056 11.5378 10.8152C11.4589 10.6249 11.4383 10.4154 11.4785 10.2134C11.5187 10.0113 11.6179 9.8257 11.7636 9.68002C11.9093 9.53434 12.0949 9.43513 12.2969 9.39493C12.499 9.35474 12.7085 9.37537 12.8988 9.45421C13.0891 9.53305 13.2518 9.66657 13.3663 9.83787C13.4807 10.0092 13.5418 10.2106 13.5418 10.4166C13.5418 10.6929 13.4321 10.9578 13.2367 11.1532C13.0414 11.3485 12.7764 11.4583 12.5002 11.4583ZM16.6668 11.4583C16.4608 11.4583 16.2594 11.3972 16.0881 11.2827C15.9168 11.1682 15.7833 11.0056 15.7045 10.8152C15.6256 10.6249 15.605 10.4154 15.6452 10.2134C15.6854 10.0113 15.7846 9.8257 15.9303 9.68002C16.0759 9.53434 16.2615 9.43513 16.4636 9.39493C16.6657 9.35474 16.8751 9.37537 17.0655 9.45421C17.2558 9.53305 17.4185 9.66657 17.5329 9.83787C17.6474 10.0092 17.7085 10.2106 17.7085 10.4166C17.7085 10.6929 17.5987 10.9578 17.4034 11.1532C17.208 11.3485 16.9431 11.4583 16.6668 11.4583Z" fill="#6F6F73"/>
</svg>
