<svg width="25" height="25" viewBox="0 0 25 25" fill="none" xmlns="http://www.w3.org/2000/svg">
<g clip-path="url(#clip0_367_1164)">
<path d="M2.53794 5.36136C2.0835 5.87864 2.0835 6.76554 2.0835 8.53934V18.324C2.0835 19.5802 2.0835 20.2084 2.4112 20.6813C2.7389 21.1541 3.31184 21.3527 4.4577 21.75L5.80582 22.2173C6.53595 22.4706 7.09778 22.6653 7.56926 22.7907C7.87683 22.8725 8.15988 22.6311 8.15988 22.3129V6.5314C8.15988 6.27211 7.96854 6.05328 7.71721 5.98953C7.31177 5.88669 6.8244 5.71772 6.15643 5.48615C4.53845 4.92522 3.72948 4.64476 3.11393 4.92957C2.89538 5.03069 2.69929 5.17769 2.53794 5.36136Z" fill="#6F6F73"/>
<path d="M13.1464 3.626L11.5464 4.73538C10.9676 5.13671 10.5434 5.43084 10.1812 5.64053C10.0095 5.73992 9.896 5.9197 9.896 6.11807V21.792C9.896 22.178 10.296 22.419 10.6212 22.2109C10.9702 21.9877 11.3698 21.7106 11.8539 21.3749L13.4539 20.2655C14.0327 19.8643 14.4569 19.5701 14.8191 19.3604C14.9909 19.261 15.1043 19.0813 15.1043 18.8829V3.20899C15.1043 2.82296 14.7043 2.58194 14.3791 2.78996C14.0302 3.01324 13.6305 3.29036 13.1464 3.626Z" fill="#6F6F73"/>
<path d="M20.5425 3.25085L19.1944 2.78348C18.4642 2.53033 17.9024 2.33559 17.431 2.21016C17.1234 2.12835 16.8403 2.36978 16.8403 2.68805V18.4695C16.8403 18.7287 17.0317 18.9476 17.2829 19.0113C17.6885 19.1141 18.1759 19.2831 18.8438 19.5147C20.4617 20.0756 21.2707 20.3561 21.8863 20.0713C22.1048 19.9702 22.3009 19.8232 22.4622 19.6395C22.9167 19.1223 22.9167 18.2353 22.9167 16.4615V6.67684C22.9167 5.42061 22.9167 4.79249 22.589 4.31962C22.2613 3.84673 21.6884 3.64811 20.5425 3.25085Z" fill="#6F6F73"/>
<rect x="8" y="23" width="2" height="29" fill="#D9D9D9"/>
</g>
<defs>
<clipPath id="clip0_367_1164">
<rect width="25" height="25" fill="white"/>
</clipPath>
</defs>
</svg>
