<svg width="25" height="25" viewBox="0 0 25 25" fill="none" xmlns="http://www.w3.org/2000/svg">
<path d="M20.6085 13.7553L19.5035 12.1929C19.2714 11.8447 19.0614 11.1859 19.0614 10.8V8.41882C19.0614 6.20706 17.5364 4.29647 15.3373 3.40235C14.7627 2.53647 13.7018 2 12.4862 2C11.2817 2 10.1988 2.55529 9.62415 3.43059C7.46926 4.34353 5.97741 6.23529 5.97741 8.41882V10.8C5.97741 11.1859 5.76745 11.8447 5.53538 12.1835L4.41926 13.7553C3.97723 14.3859 3.87777 15.0824 4.15404 15.7224C4.41926 16.3529 5.04915 16.8424 5.8669 17.0776C8.01074 17.6988 10.2651 18 12.5194 18C14.7737 18 17.0281 17.6988 19.1719 17.0871C19.9455 16.8706 20.5422 16.3718 20.8295 15.7224C21.1169 15.0729 21.0395 14.3576 20.6085 13.7553Z" fill="#6F6F73"/>
<path d="M16 20.015C15.4796 21.755 14.1044 23 12.4938 23C11.5151 23 10.5487 22.52 9.86725 21.665C9.4708 21.215 9.17345 20.615 9 20C9.16106 20.03 9.32212 20.045 9.49557 20.075C9.78053 20.12 10.0779 20.165 10.3752 20.195C11.0814 20.27 11.8 20.315 12.5186 20.315C13.2248 20.315 13.931 20.27 14.6248 20.195C14.885 20.165 15.1451 20.15 15.3929 20.105C15.5912 20.075 15.7894 20.045 16 20.015Z" fill="#6F6F73"/>
</svg>
