<svg width="25" height="25" viewBox="0 0 25 25" fill="none" xmlns="http://www.w3.org/2000/svg">
<path d="M18.2596 8.09367C18.1867 8.08325 18.1138 8.08325 18.0409 8.09367C16.4263 8.04159 15.145 6.71867 15.145 5.09367C15.145 3.43742 16.4888 2.08325 18.1554 2.08325C19.8117 2.08325 21.1659 3.427 21.1659 5.09367C21.1554 6.71867 19.8742 8.04159 18.2596 8.09367Z" fill="#6F6F73"/>
<path d="M21.658 15.3129C20.4914 16.0942 18.856 16.3858 17.3455 16.1879C17.7414 15.3338 17.9497 14.3858 17.9601 13.3858C17.9601 12.3442 17.731 11.3546 17.2935 10.49C18.8351 10.2817 20.4705 10.5733 21.6476 11.3546C23.2935 12.4379 23.2935 14.2192 21.658 15.3129Z" fill="#6F6F73"/>
<path d="M6.70833 8.09367C6.78125 8.08325 6.85417 8.08325 6.92708 8.09367C8.54167 8.04159 9.82292 6.71867 9.82292 5.09367C9.82292 3.427 8.47917 2.08325 6.8125 2.08325C5.15625 2.08325 3.8125 3.427 3.8125 5.09367C3.8125 6.71867 5.09375 8.04159 6.70833 8.09367Z" fill="#6F6F73"/>
<path d="M6.82389 13.386C6.82389 14.3965 7.04264 15.3548 7.43848 16.2194C5.96973 16.3756 4.43848 16.0631 3.31348 15.3235C1.66764 14.2298 1.66764 12.4485 3.31348 11.3548C4.42806 10.6048 6.00098 10.3027 7.48014 10.4694C7.05306 11.3444 6.82389 12.334 6.82389 13.386Z" fill="#6F6F73"/>
<path d="M12.626 16.5312C12.5427 16.5208 12.4489 16.5208 12.3552 16.5312C10.4385 16.4687 8.90723 14.8958 8.90723 12.9583C8.91764 10.9792 10.5114 9.375 12.501 9.375C14.4802 9.375 16.0843 10.9792 16.0843 12.9583C16.0739 14.8958 14.5531 16.4687 12.626 16.5312Z" fill="#6F6F73"/>
<path d="M9.24023 18.6882C7.66732 19.7403 7.66732 21.4695 9.24023 22.5111C11.0319 23.7091 13.9694 23.7091 15.7611 22.5111C17.334 21.4591 17.334 19.7299 15.7611 18.6882C13.9798 17.4903 11.0423 17.4903 9.24023 18.6882Z" fill="#6F6F73"/>
</svg>
