<svg width="25" height="25" viewBox="0 0 25 25" fill="none" xmlns="http://www.w3.org/2000/svg">
<path d="M20.8333 9.375C21.1096 9.375 21.3746 9.26525 21.5699 9.0699C21.7653 8.87455 21.875 8.6096 21.875 8.33333V4.16667C21.875 3.8904 21.7653 3.62545 21.5699 3.4301C21.3746 3.23475 21.1096 3.125 20.8333 3.125H16.6667C16.3904 3.125 16.1254 3.23475 15.9301 3.4301C15.7347 3.62545 15.625 3.8904 15.625 4.16667V5.20833H9.375V4.16667C9.375 3.8904 9.26525 3.62545 9.0699 3.4301C8.87455 3.23475 8.6096 3.125 8.33333 3.125H4.16667C3.8904 3.125 3.62545 3.23475 3.4301 3.4301C3.23475 3.62545 3.125 3.8904 3.125 4.16667V8.33333C3.125 8.6096 3.23475 8.87455 3.4301 9.0699C3.62545 9.26525 3.8904 9.375 4.16667 9.375H5.20833V15.625H4.16667C3.8904 15.625 3.62545 15.7347 3.4301 15.9301C3.23475 16.1254 3.125 16.3904 3.125 16.6667V20.8333C3.125 21.1096 3.23475 21.3746 3.4301 21.5699C3.62545 21.7653 3.8904 21.875 4.16667 21.875H8.33333C8.6096 21.875 8.87455 21.7653 9.0699 21.5699C9.26525 21.3746 9.375 21.1096 9.375 20.8333V19.7917H15.625V20.8333C15.625 21.1096 15.7347 21.3746 15.9301 21.5699C16.1254 21.7653 16.3904 21.875 16.6667 21.875H20.8333C21.1096 21.875 21.3746 21.7653 21.5699 21.5699C21.7653 21.3746 21.875 21.1096 21.875 20.8333V16.6667C21.875 16.3904 21.7653 16.1254 21.5699 15.9301C21.3746 15.7347 21.1096 15.625 20.8333 15.625H19.7917V9.375H20.8333ZM17.7083 15.625H16.6667C16.3904 15.625 16.1254 15.7347 15.9301 15.9301C15.7347 16.1254 15.625 16.3904 15.625 16.6667V17.7083H9.375V16.6667C9.375 16.3904 9.26525 16.1254 9.0699 15.9301C8.87455 15.7347 8.6096 15.625 8.33333 15.625H7.29167V9.375H8.33333C8.6096 9.375 8.87455 9.26525 9.0699 9.0699C9.26525 8.87455 9.375 8.6096 9.375 8.33333V7.29167H15.625V8.33333C15.625 8.6096 15.7347 8.87455 15.9301 9.0699C16.1254 9.26525 16.3904 9.375 16.6667 9.375H17.7083V15.625Z" fill="white"/>
</svg>
