<svg width="25" height="25" viewBox="0 0 25 25" fill="none" xmlns="http://www.w3.org/2000/svg">
<path d="M14.5835 3.04159V11.6978C14.5835 12.7603 13.7189 13.6249 12.6564 13.6249H3.12516C2.55225 13.6249 2.0835 13.1562 2.0835 12.5833V5.927C2.0835 3.802 3.80225 2.08325 5.92725 2.08325H13.6147C14.1564 2.08325 14.5835 2.51034 14.5835 3.04159Z" fill="#6F6F73"/>
<path d="M22.396 16.1458C22.6877 16.1458 22.9168 16.3749 22.9168 16.6666V17.7083C22.9168 19.4374 21.521 20.8333 19.7918 20.8333C19.7918 19.1145 18.3856 17.7083 16.6668 17.7083C14.9481 17.7083 13.5418 19.1145 13.5418 20.8333H11.4585C11.4585 19.1145 10.0522 17.7083 8.3335 17.7083C6.61475 17.7083 5.2085 19.1145 5.2085 20.8333C3.47933 20.8333 2.0835 19.4374 2.0835 17.7083V15.6249C2.0835 15.052 2.55225 14.5833 3.12516 14.5833H13.021C14.4585 14.5833 15.6252 13.4166 15.6252 11.9791V6.24992C15.6252 5.677 16.0939 5.20825 16.6668 5.20825H17.5418C18.2918 5.20825 18.9793 5.6145 19.3543 6.26034L20.021 7.427C20.1147 7.59367 19.9897 7.81242 19.7918 7.81242C18.3543 7.81242 17.1877 8.97909 17.1877 10.4166V13.5416C17.1877 14.9791 18.3543 16.1458 19.7918 16.1458H22.396Z" fill="#6F6F73"/>
<path d="M8.33333 22.9167C9.48393 22.9167 10.4167 21.984 10.4167 20.8333C10.4167 19.6827 9.48393 18.75 8.33333 18.75C7.18274 18.75 6.25 19.6827 6.25 20.8333C6.25 21.984 7.18274 22.9167 8.33333 22.9167Z" fill="#6F6F73"/>
<path d="M16.6668 22.9167C17.8175 22.9167 18.7502 21.984 18.7502 20.8333C18.7502 19.6827 17.8175 18.75 16.6668 18.75C15.5162 18.75 14.5835 19.6827 14.5835 20.8333C14.5835 21.984 15.5162 22.9167 16.6668 22.9167Z" fill="#6F6F73"/>
<path d="M22.9167 13.0521V14.5833H19.7917C19.2187 14.5833 18.75 14.1146 18.75 13.5417V10.4167C18.75 9.84375 19.2187 9.375 19.7917 9.375H21.1354L22.6458 12.0208C22.8229 12.3333 22.9167 12.6875 22.9167 13.0521Z" fill="#6F6F73"/>
</svg>
