<svg width="18" height="16" viewBox="0 0 18 16" fill="none" xmlns="http://www.w3.org/2000/svg">
<path d="M15.8125 5.06503L17.3125 3.56503C17.4375 3.44003 17.5 3.19003 17.5 3.00253C17.4375 2.81503 17.3125 2.62753 17.125 2.56503L10.875 0.0650323C10.625 -0.0599677 10.375 0.00253253 10.1875 0.190033L8.75 1.62753L7.3125 0.190033C7.125 0.00253253 6.875 -0.0599677 6.625 0.0650323L0.375 2.56503C0.1875 2.62753 0.0625 2.81503 0 3.00253C0 3.19003 0.0625 3.44003 0.1875 3.56503L1.6875 5.06503L0.125 7.12753C2.79397e-08 7.25253 0 7.50253 0 7.69003C0.0625 7.87753 0.1875 8.00253 0.375 8.12753L6.625 10.6275C6.6875 10.6275 6.75 10.69 6.875 10.69C7.0625 10.69 7.25 10.6275 7.375 10.44L8.75 8.62753L10.125 10.44C10.25 10.6275 10.4375 10.69 10.625 10.69C10.6875 10.69 10.8125 10.69 10.875 10.6275L17.125 8.12753C17.3125 8.06503 17.4375 7.87753 17.5 7.69003C17.5625 7.50253 17.5 7.31503 17.375 7.12753L15.8125 5.06503ZM8.75 6.81503L4.1875 5.00253L8.75 3.19003L13.3125 5.00253L8.75 6.81503Z" fill="white"/>
<path d="M10.625 11.8774C10.0625 11.8774 9.5 11.6274 9.125 11.1274L8.75 10.6274L8.375 11.1274C7.875 11.8149 6.9375 12.0649 6.1875 11.7524L1.875 10.0024V12.5024C1.875 12.7524 2 13.0024 2.25 13.0649L8.5 15.5649C8.5625 15.5649 8.625 15.6274 8.75 15.6274C8.875 15.6274 8.9375 15.6274 9 15.5649L15.25 13.0649C15.5 12.9399 15.625 12.7524 15.625 12.5024V10.0024L11.3125 11.7524C11.125 11.8149 10.875 11.8774 10.625 11.8774Z" fill="white"/>
</svg>
